<svg width="93" height="93" viewBox="0 0 93 93" fill="none" xmlns="http://www.w3.org/2000/svg">
<ellipse cx="46.2116" cy="46.2116" rx="46.2116" ry="46.2116" fill="#FFAC4B"/>
<g style="mix-blend-mode:multiply">
<path d="M46.2116 20.025L48.2159 41.373L64.7284 27.6949L51.0503 44.2074L72.3982 46.2116L51.0503 48.2159L64.7284 64.7283L48.2159 51.0503L46.2116 72.3982L44.2074 51.0503L27.6949 64.7283L41.373 48.2159L20.025 46.2116L41.373 44.2074L27.6949 27.6949L44.2074 41.373L46.2116 20.025Z" fill="#FFAC4B"/>
<ellipse cx="10.7827" cy="10.7827" rx="10.7827" ry="10.7827" transform="matrix(-1 0 0 1 56.9944 35.4289)" fill="#FFAC4B"/>
<path d="M51.7183 39.0718C50.6321 40.1579 50.5685 41.8554 50.5685 41.8554C50.5685 41.8554 52.266 41.7918 53.3521 40.7056C54.4382 39.6195 57.6485 34.7754 57.6485 34.7754C57.6485 34.7754 52.8044 37.9856 51.7183 39.0718Z" fill="#FFAC4B"/>
<path d="M54.0316 41.7227C52.6125 42.3105 51.9042 43.8544 51.9042 43.8544C51.9042 43.8544 53.4967 44.4452 54.9158 43.8574C56.335 43.2696 61.1545 40.0227 61.1545 40.0227C61.1545 40.0227 55.4507 41.1349 54.0316 41.7227Z" fill="#FFAC4B"/>
<path d="M55.1545 45.0569C53.6184 45.0569 52.3732 46.2122 52.3732 46.2122C52.3732 46.2122 53.6184 47.3675 55.1545 47.3675C56.6905 47.3675 62.3857 46.2122 62.3857 46.2122C62.3857 46.2122 56.6905 45.0569 55.1545 45.0569Z" fill="#FFAC4B"/>
<path d="M54.9159 48.5671C53.4967 47.9793 51.9042 48.5701 51.9042 48.5701C51.9042 48.5701 52.6125 50.114 54.0316 50.7018C55.4507 51.2896 61.1546 52.4017 61.1546 52.4017C61.1546 52.4017 56.335 49.1549 54.9159 48.5671Z" fill="#FFAC4B"/>
<path d="M53.3521 51.7188C52.2659 50.6327 50.5685 50.5691 50.5685 50.5691C50.5685 50.5691 50.6321 52.2665 51.7182 53.3527C52.8044 54.4388 57.6484 57.649 57.6484 57.649C57.6484 57.649 54.4382 52.805 53.3521 51.7188Z" fill="#FFAC4B"/>
<path d="M50.7013 54.0321C50.1134 52.6129 48.5696 51.9046 48.5696 51.9046C48.5696 51.9046 47.9787 53.4972 48.5666 54.9163C49.1544 56.3354 52.4012 61.155 52.4012 61.155C52.4012 61.155 51.2891 55.4512 50.7013 54.0321Z" fill="#FFAC4B"/>
<path d="M47.3669 55.1548C47.3669 53.6188 46.2116 52.3736 46.2116 52.3736C46.2116 52.3736 45.0564 53.6188 45.0564 55.1548C45.0564 56.6909 46.2116 62.3861 46.2116 62.3861C46.2116 62.3861 47.3669 56.6909 47.3669 55.1548Z" fill="#FFAC4B"/>
<path d="M43.8567 54.9162C44.4445 53.4971 43.8537 51.9045 43.8537 51.9045C43.8537 51.9045 42.3098 52.6128 41.722 54.032C41.1342 55.4511 40.0221 61.1549 40.0221 61.1549C40.0221 61.1549 43.2689 56.3353 43.8567 54.9162Z" fill="#FFAC4B"/>
<path d="M40.705 53.3525C41.7912 52.2663 41.8548 50.5689 41.8548 50.5689C41.8548 50.5689 40.1573 50.6325 39.0712 51.7186C37.985 52.8048 34.7748 57.6488 34.7748 57.6488C34.7748 57.6488 39.6189 54.4386 40.705 53.3525Z" fill="#FFAC4B"/>
<path d="M38.3917 50.7015C39.8108 50.1137 40.5191 48.5698 40.5191 48.5698C40.5191 48.5698 38.9266 47.979 37.5075 48.5668C36.0883 49.1546 31.2688 52.4015 31.2688 52.4015C31.2688 52.4015 36.9726 51.2893 38.3917 50.7015Z" fill="#FFAC4B"/>
<path d="M37.2688 47.3671C38.8049 47.3671 40.0501 46.2118 40.0501 46.2118C40.0501 46.2118 38.8049 45.0565 37.2688 45.0565C35.7328 45.0565 30.0376 46.2118 30.0376 46.2118C30.0376 46.2118 35.7328 47.3671 37.2688 47.3671Z" fill="#FFAC4B"/>
<path d="M37.5075 43.8569C38.9266 44.4448 40.5191 43.8539 40.5191 43.8539C40.5191 43.8539 39.8108 42.3101 38.3917 41.7222C36.9726 41.1344 31.2688 40.0223 31.2688 40.0223C31.2688 40.0223 36.0883 43.2691 37.5075 43.8569Z" fill="#FFAC4B"/>
<path d="M39.0712 40.7052C40.1574 41.7914 41.8548 41.855 41.8548 41.855C41.8548 41.855 41.7912 40.1576 40.7051 39.0714C39.6189 37.9853 34.7749 34.775 34.7749 34.775C34.7749 34.775 37.9851 39.6191 39.0712 40.7052Z" fill="#FFAC4B"/>
<path d="M41.722 38.3918C42.3099 39.8109 43.8537 40.5192 43.8537 40.5192C43.8537 40.5192 44.4446 38.9267 43.8567 37.5075C43.2689 36.0884 40.0221 31.2688 40.0221 31.2688C40.0221 31.2688 41.1342 36.9726 41.722 38.3918Z" fill="#FFAC4B"/>
<path d="M45.0564 37.2688C45.0564 38.8048 46.2117 40.0501 46.2117 40.0501C46.2117 40.0501 47.367 38.8048 47.367 37.2688C47.367 35.7328 46.2117 30.0375 46.2117 30.0375C46.2117 30.0375 45.0564 35.7328 45.0564 37.2688Z" fill="#FFAC4B"/>
<path d="M48.5666 37.508C47.9788 38.9271 48.5696 40.5197 48.5696 40.5197C48.5696 40.5197 50.1135 39.8114 50.7013 38.3922C51.2891 36.9731 52.4012 31.2693 52.4012 31.2693C52.4012 31.2693 49.1544 36.0889 48.5666 37.508Z" fill="#FFAC4B"/>
</g>
</svg>
