<svg width="153" height="144" viewBox="0 0 153 144" fill="none" xmlns="http://www.w3.org/2000/svg">
<g clip-path="url(#clip0_1_5888)">
<path d="M86.6003 71.0755C87.0318 75.2723 87.711 87.3067 87.8623 88.4494C88.3006 90.9788 88.6687 93.5198 88.9664 96.0696C89.9672 103.864 92.6172 111.743 97.5535 117.918C109.808 133.416 128.936 141.573 148.475 142.529C152.901 142.779 158.219 143.902 162.578 142.763" stroke="#292524" stroke-width="2.45005" stroke-miterlimit="2.64" stroke-linecap="round" stroke-linejoin="round"/>
<path d="M58.4194 58.3317C55.7614 56.3655 59.1821 50.224 60.2106 47.3693C64.4311 36.3642 83.5755 27.8898 92.6338 38.2356C94.7401 40.6403 99.4159 44.963 99.1265 48.6597C98.9497 51.6607 94.4365 53.0627 92.1572 53.9524C86.992 55.9663 81.7796 58.3628 76.1694 59.2363C72.9861 59.7734 61.076 60.2982 58.4194 58.3317Z" fill="#1E9A64"/>
<path d="M91.3129 36.9181C91.9359 36.6129 92.5386 36.321 93.1185 36.0445C94.6178 35.3316 97.5024 32.948 100.333 30.607C102.97 28.4306 105.558 26.289 106.938 25.574C118.927 19.4118 124.574 20.3757 125.655 24.2303C126.808 28.2465 122.67 31.4845 118.821 34.4985C117.2 35.7653 115.631 36.9934 114.529 38.2228C113.752 39.0462 112.728 39.7251 111.788 40.349L111.26 40.7022C111.133 40.8145 110.509 41.0755 109.962 41.3056C109.472 41.5109 109.044 41.6893 109.085 41.7133C109.773 42.1162 112.107 41.1408 113.734 40.4626C114.379 40.1928 114.913 39.9696 115.188 39.8976C118.055 39.1488 120.844 38.2385 123.626 37.3297C127.691 35.999 131.742 34.6765 136.007 33.8695C137.841 33.5375 144.721 32.9972 143.666 36.598C140.97 45.8009 127.543 50.4161 119.165 52.0139C116.137 52.5832 113.072 53.015 110.002 53.1506C109.88 53.1827 108.911 53.1286 107.879 53.0689C106.594 52.9962 105.212 52.9157 105.232 52.9927C105.305 53.2698 107.196 53.4404 107.422 53.4559C108.979 53.7834 110.539 54.0345 112.095 54.2863C113.199 54.4648 114.301 54.6408 115.398 54.8465C121.375 55.944 126.784 59.1147 131.845 62.0784C132.378 62.3904 132.947 62.6771 133.518 62.9663C135.756 64.0957 138.038 65.2468 138.343 67.9939C139.566 78.9079 125.091 76.1115 119.362 73.9867C118.155 73.5422 117.114 73.0261 116.056 72.5032C115.456 72.2009 114.85 71.9096 114.239 71.6294C113.185 71.1227 112.102 70.6999 111.021 70.2764C109.24 69.5783 107.465 68.8849 105.856 67.8318C105.189 67.3872 104.472 66.8038 103.721 66.1959C102.058 64.8451 100.238 63.3675 98.4523 62.9666C98.2182 62.9185 98.5842 63.2835 98.8736 63.5735C98.9742 63.6738 99.0661 63.7653 99.1202 63.8271C99.34 64.0625 99.5604 64.2883 99.7737 64.5111C100.154 64.9023 100.519 65.2817 100.857 65.6652C101.767 66.7064 102.549 67.8774 103.312 69.0233C103.697 69.5987 104.076 70.1674 104.464 70.7085C108.092 75.8226 111.375 81.3195 112.342 87.5698C112.691 89.473 113.262 94.2032 110.898 95.3382C107.161 97.1562 104.856 95.2673 102.221 93.1066L101.799 92.7627C96.341 88.2755 92.8543 84.8276 90.1478 78.1435C89.6833 77.0256 89.239 75.9183 88.7966 74.8184C88.2886 73.5583 87.7863 72.3079 87.2633 71.0628C87.2313 71.0253 87.1587 70.8322 87.0636 70.5832C86.8523 70.0227 86.5338 69.1848 86.3426 69.2348C86.3041 69.2448 86.2075 70.0202 86.1205 70.7109C86.0548 71.2471 85.9915 71.7321 85.97 71.771C85.8543 73.2667 85.3978 74.6457 84.9392 76.0285C84.7268 76.6696 84.514 77.3091 84.3363 77.9617C82.1926 85.3207 79.9935 92.1767 77.2071 99.3348C76.3627 101.477 74.2255 106.025 71.2912 105.831C69.0218 105.68 68.1991 101.724 67.705 99.3478C67.6107 98.8897 67.5285 98.4902 67.4496 98.188C65.7871 91.8232 65.6056 84.6268 66.3527 78.15C66.4304 77.272 66.9007 76.0492 67.3877 74.7809C68.0757 72.9916 68.7998 71.1106 68.5038 69.9772C68.3258 69.2957 67.7987 70.2041 67.2624 71.126C66.9814 71.6077 66.6998 72.0928 66.4649 72.3567C65.1423 73.8433 64.1695 75.4205 63.1754 77.0317C62.7544 77.7162 62.329 78.4081 61.8701 79.0993C61.2981 79.9752 60.5986 80.745 59.894 81.5194C59.2354 82.2454 58.5704 82.9777 58.0001 83.8057C56.7406 85.6847 55.3574 87.4778 53.8596 89.173C53.2941 89.8256 52.6632 90.6519 51.9793 91.5538C48.5378 96.077 43.6665 102.482 38.0656 98.0289C36.1075 96.4703 37.0095 93.1311 37.5446 91.2172C38.9834 85.9161 42.3344 81.5796 45.6498 77.2887C46.4142 76.3009 47.176 75.3154 47.9117 74.3208C48.1689 73.9846 48.4326 73.6308 48.7014 73.2725C49.4684 72.2461 50.2789 71.1623 51.1285 70.2282C51.7639 69.5463 53.0142 68.1103 53.0142 68.1103L50.4246 69.2298C49.5129 69.6658 48.5613 69.9428 47.6097 70.2199C46.7758 70.463 45.942 70.7061 45.1375 71.0556C43.2267 71.8474 41.3931 72.8439 39.5632 73.8362C36.7938 75.3398 34.0355 76.8374 31.0368 77.6207C29.17 78.1083 26.0016 78.7143 24.5264 77.0295C22.2096 74.3823 26.6875 68.0405 28.5783 66.5116C33.4811 62.6449 40.7986 59.2554 46.9611 58.2361C47.407 58.1497 47.8503 58.0592 48.2954 57.9699C50.0948 57.6059 51.8856 57.2458 53.6796 57.0731C53.8122 57.0718 55.2304 56.3151 57.4963 55.0712C57.304 56.4556 57.4933 57.647 58.4194 58.3325C61.0756 60.2976 72.9846 59.7746 76.1712 59.2382C80.7851 58.519 85.1319 56.7711 89.4021 55.0511C90.3231 54.6808 91.241 54.3113 92.1572 53.9532L92.8483 53.6904C95.2399 52.7888 98.9653 51.3821 99.1264 48.6605C99.3725 45.5307 96.0579 41.9539 93.758 39.4685C93.3778 39.0628 93.0031 38.6521 92.6338 38.2365C92.224 37.7675 91.7826 37.327 91.3129 36.9181Z" fill="#FBC604"/>
</g>
<defs>
<clipPath id="clip0_1_5888">
<rect width="153.128" height="153.128" fill="white" transform="translate(0 38.6987) rotate(-14.6386)"/>
</clipPath>
</defs>
</svg>
