<svg width="148" height="148" viewBox="0 0 148 148" fill="none" xmlns="http://www.w3.org/2000/svg">
<path d="M73.9717 143.801C112.537 143.801 143.801 112.537 143.801 73.9717C143.801 35.406 112.537 4.14242 73.9717 4.14242C35.4061 4.14242 4.14246 35.406 4.14246 73.9717C4.14246 112.537 35.4061 143.801 73.9717 143.801Z" stroke="black" stroke-width="8.28483" stroke-miterlimit="10"/>
<path d="M73.9728 4.262V143.802" stroke="black" stroke-width="8.28483" stroke-miterlimit="10"/>
<path d="M73.972 143.801C93.2548 143.801 108.887 112.538 108.887 73.9719C108.887 35.4063 93.2548 4.14262 73.972 4.14262C54.6892 4.14262 39.0574 35.4063 39.0574 73.9719C39.0574 112.538 54.6892 143.801 73.972 143.801Z" stroke="black" stroke-width="8.28483" stroke-miterlimit="10"/>
<path d="M4.26038 73.9728H143.801" stroke="black" stroke-width="8.28483" stroke-miterlimit="10"/>
</svg>
